<svg xmlns="http://www.w3.org/2000/svg" viewBox="0 0 430.7 425.75"><defs><style>.cls-1{fill:#999;}</style></defs><g id="chestplate2"><path class="cls-1" d="M425.75,99v-5H420.8v-5h-9.91v-5h-4.95v-5H401v-9.9H396v-5h-5v-5h-4.95V54.46h-4.95v-5h-4.95V44.56h-4.95v-9.9h-5V29.71h-4.95v-9.9h-4.95V14.86H341.59v4.95h-4.95v5h-4.95v4.95h-4.95v4.95h-4.95v5h-5v-5h-9.91V29.71H297V24.76h-4.95v-5h-4.95V14.86h-4.95V5h-4.95V0H252.48V5H188.12V0h-29.7V5h-4.95v5h-4.95v5h-5v4.95h-4.95v5h-5v4.95h-4.95v4.95H104V29.71h-9.9V24.76h-5v-5h-5V14.86h-9.9v9.9h-5v9.9h-5v5h-5v5H54.46v4.95h-5v5H44.56v4.95h-5v9.9h-5v5H29.71v9.9H24.76v5H14.85v5H5V104H0v5H5v5h5v4.95h4.95v5h9.91v5H39.61v4.95h5v5h9.9v4.95h4.95v5h5v4.95h5v4.95h5v5h4.95v24.75h5v24.76h5v9.9h5v19.8h5v19.8H104v19.8h5v9.9h-5V297H99v5h-5v14.86h-5v14.85h5v14.85h5v4.95H104v4.95h14.86v9.9h5v5h5v4.95h24.75v4.95h4.95v9.9h9.9v5h5V401h4.95v4.95h9.9v5h4.95v5h14.85v4.95h5v4.95h24.76V420.8h5v-4.95h9.9v-5h9.9v-5h4.95V401h4.95V396h9.9v-5h4.95v-4.95h4.95v-4.95h19.8v-4.95h9.91v-9.9h4.95v-9.9h4.95v-4.95h4.95v-4.95h4.95v-9.9h5v-19.8h-5v-9.91h-4.95V302h-4.95V287.13h-4.95v-4.95h4.95v-29.7h4.95V237.63h4.95V222.78h5v-9.9h4.95V198h4.95V163.37h4.95v-5h4.95v-4.95h5v-4.95h4.95v-5h4.95v-4.95h4.95v-9.9H396v-5h9.9v-5H420.8v-4.95h4.95v-5h4.95V99ZM396,84.16v5H401v5h-9.9v5h-4.95v-5h-4.95v5h-4.95v9.9h-4.95v5h-5v4.95h-4.95v5h-4.95v5h9.9v-5h5v-5h4.95v-4.95h4.95v-5h4.95v-5H396V99h19.81V104h-5v5H401v5h-9.9v4.95h-9.9v5h-9.9v5h-5v4.95h-4.95v5h-4.95v9.9h-4.95v4.95h-9.9v-4.95h-4.95V133.67h-4.95v9.9h-4.95V128.72h-4.95v4.95h-5v-9.9h5v-9.9h-5V99h5v-9.9h4.95v-9.9h4.95V74.26h4.95v-5h4.95v-5h5v-5h4.95V54.46h9.9v-5h4.95v5h5v4.95h4.95v5h4.95v5h4.95v5h4.95v4.95h5Zm-49.5,89.11v19.8h-5v-4.95h-4.95v-9.9h-4.95V163.37h4.95v4.95h9.9Zm9.9-138.61v5h4.95v5h-4.95v4.95h-4.95V44.56h-4.95v9.9h-5v4.95h-4.95v5h-4.95v5h-9.9V84.16h-5V69.31h5v-5h-5v-5h9.9V54.46h-4.95v-5h4.95V44.56h4.95v-5h9.9v-5h5V29.71h9.9Zm-59.41,0h5v5h9.9V54.46h-4.95V79.21H302v5h-9.9v5h-4.95v5h-9.9v5h-5V104h-9.9v5h-4.95v5h-5v4.95h-9.9v5h-5v5h-4.95v-5h-5v-9.9h5v-5h-5V99h5v-5h-5v-9.9h5v-5h-5v-9.9h-4.95v-5h4.95v5h5v-5h4.95v-5h9.9V54.46h9.9v-5h4.95V44.56h9.9v-5h9.9v-5h4.95V29.71h4.95v4.95Zm-69.3,118.81h-4.95v4.95h4.95v5h-4.95v4.95h4.95v5h-4.95v4.95h4.95v4.95h-4.95v5h4.95v4.95h-4.95v5h4.95V203h-4.95v4.95h4.95v5h-4.95v5h4.95v4.95h5v14.85h4.95v9.9h5v4.95h4.95v5h4.95v4.95h5v4.95h-5v-4.95h-9.9v-4.95h-9.9v-9.9h-5v-4.95h-4.95v4.95h-4.95v4.95h-5v5H203v4.95h-9.9v-4.95h5v-5H203v-4.95h4.95v-9.9h5v-19.8h5v-5h4.95v-5h-4.95V203h4.95V198h-4.95v-5h4.95v-4.95h-4.95v-5h4.95v-4.95h-4.95v-4.95h4.95v-5h-4.95v-4.95h4.95v-5h-4.95v-4.95h4.95v-4.95h-4.95v-5h4.95v5h4.95ZM168.32,262.38H153.47v-4.95h-9.9v-5h-4.95v-4.95h-5v-4.95h-4.95v-9.9h-5v-5H108.91v5h-5v-5h5v-4.95h5v-4.95h9.91v-5h-5V203h9.9V198h-5v-9.9h-5V153.47h5v34.65h5V173.27h4.95v-5h-4.95V153.47h4.95v-4.95h-4.95V133.67h4.95V118.82h5v-4.95h-5v-5h5v-5h-5v-9.9h5v5h9.9v9.9h4.95v-5h4.95v5h5v5h9.9v4.95h4.95v5h9.9v5h4.95v4.95H203v5h9.9v74.26h-5v19.8H203v9.9H198v4.95h-5v4.95h-4.95v5h-5v4.95h-4.95v4.95h-4.95v-4.95ZM104,188.12V198H99V203h-5v-19.8h-5v-9.9H99v-5h9.9v19.8ZM123.77,54.46h5v-5h-5V44.56h9.9v-5h5v-5h9.9V29.71h4.95V24.76h4.95v-9.9h5v9.9h9.9v4.95h4.95v4.95h4.95v5h9.9v5h14.85v9.9H203v-5H188.12V44.56h-9.9v-5h-4.95v-9.9h-5v4.95h-4.95V29.71h-9.9v4.95h-4.95v5h19.8v5h5v4.95h9.9v5H198v4.95h9.9v9.9h5v-5h5v5h-5v5h5v4.95h4.95v5h-9.91v5h9.91v5h-4.95v5h4.95V104h-4.95v5h4.95v9.91h-4.95v5h-9.91v-5H203v-4.95H198v-5h-5v-5h-4.95v5h-5v-5h-9.9V99h-9.9v-5h-5v-5h-4.95v-5h-9.9v-5h-4.95V74.26h-5v-5h-4.95v-9.9h-5Zm94.06,0v4.95h-5v-9.9h5Zm64.35-29.7v4.95h-4.95v4.95h-9.9v5H252.48v9.9h-9.9v5h-9.9v4.95h-9.9v-9.9h4.95v5h5v-5h9.9v-9.9h9.9v-5h5V29.71h4.95v4.95h4.95v-9.9h4.95v4.95h5v-9.9h4.95ZM99,39.61v9.9H104V44.56h5v4.95h5v5h-5v4.95h9.91V74.26h5V104h-5V89.11h-5v-9.9h-5V74.26h-5v9.9h5v9.9h5v14.85h5v24.76h-5v14.85h-5v4.95H99v-4.95h-5v-5h-5v9.9h5v4.95h5v5h-5v-5h-5v-4.95h-5v-4.95h-5v-5H74.26v-4.95h-5v-5h-5v-4.95h-9.9v-5h-9.9v-5h-9.9v-4.95H29.71v-5h-9.9v-5h5V99h4.95v-5h4.95v-5h5v-9.9h5V74.26h4.95v-5h5v-5h4.95v-5h5V54.46h5v-5h5v-9.9h4.95v-9.9h5v9.9h5v-5h5v5Zm0,178.22v-5H104v-5h5V198h5v-5h5v5h-5v14.86h-5v5h-5v4.95H99Zm4.95,99v-9.91h5V302h5v9.91h5V297h5v5h5v9.91h14.85v4.95h9.9v5h9.9v4.95h4.95v9.9h-4.95v-9.9h-9.9v-4.95h-9.9v-5h-4.95v5h-5v-5h-4.95v-4.95h-9.9v9.9h9.9v4.95h-5v14.85h-5v5h-9.91v-9.9h-5v-9.9H99v-9.9Zm104,14.85v-4.95h5v-4.95h5v4.95h4.95v-4.95h14.85v9.9h5v-4.95h4.95v9.9h4.95v-4.95h9.9v4.95h4.95v-9.9h4.95v4.95h5v4.95h-9.9v4.95h-4.95v-4.95h-4.95v4.95h-9.9v-4.95h-4.95v4.95h-5v-4.95H222.78v-4.95h-4.95v4.95h-5v-4.95h-5v4.95H203v4.95H188.12v-9.9h4.95v4.95h5v-9.9H203v4.95Zm74.26-9.9h4.95v9.9h-4.95v-9.9Zm9.9-5H297v5h-4.95Zm14.85-4.95v-5h4.95V302h5v4.95h-5v5h-4.95v4.95H302v-4.95Zm4.95,14.85v9.9h5v24.75h-5v4.95h-4.95v5H292.08v-9.9h-4.95v-4.95h-4.95v-9.9h4.95v-9.9h4.95v-4.95H297v-4.95h5v-4.95h4.95v4.95Zm-29.7,44.55v4.95h-4.95v4.95h-5v4.95h-9.9V361.39h-4.95v-9.9h-5v-4.95h19.8v-5h5v19.8h4.95v4.95h4.95v5ZM242.58,401v4.95h-9.9v5H217.83v-5h-9.91V401H198v-9.9h-5v-29.7h5v-4.95H203v-4.95h9.9v-4.95h19.81v4.95h4.95v4.95h5v4.95h4.95v4.95h4.95V396h-4.95V401Zm-74.26-19.8v-4.95h-4.95v-4.95h-5v-9.9h5v-19.8h14.85v5h14.85v4.95h-4.95v4.95h-5v29.7h-9.9v-4.95Zm-39.6-19.8v-29.7h4.95v-4.95h14.85v4.95h4.95v4.95h4.95v19.8h-4.95v9.9h-19.8v-4.95Zm44.55-29.7h9.9v4.95h-9.9Zm163.37-9.9v9.9h-4.95v4.95h-9.9v-4.95h-5v-9.9h-5v-5h5v-4.95h5v-5h4.95v5h4.95v4.95h4.95Zm-19.8-39.61v9.9h-5V297H302v5h-5v4.95h-4.95v5h-4.95v4.95h-9.9v5H262.38v-5h-4.95v5h-5v-5h-4.95v5h-4.95v-5h-9.9V302h-5v4.95h-4.95v5h-9.91v4.95h-5v5H203v-5H198v5h-5v-5h-4.95v5h-5v-5h-4.95v5h-9.9v-5h-9.9v-4.95h-4.95V302h-4.95v4.95h-5V297h-9.9v-9.9h-9.9v-4.95h-5v9.9h-5v-19.8h9.91v5h5v4.95h4.95v4.95h9.9v4.95h9.9V297h14.85v5h39.6v-5h9.91v-4.95h14.85V297h19.8v5h19.8v-5h14.85v-4.95H297V297h5v-9.9h4.95v-4.95h9.91v-9.9h5v9.9Zm5-29.7v9.9h-5v4.95h-5v4.95h-4.95v5H302v4.95h-9.9v4.95h-4.95v-4.95h-4.95v9.9h-4.95v-4.95h-5v4.95h-4.95v-4.95h-4.95v4.95h-4.95v-4.95h-5v4.95h-9.9v-4.95h-9.9v-4.95H217.83v4.95h-9.91v4.95H203v-4.95H198v4.95h-5v-4.95h-4.95v4.95h-5v-4.95h-4.95v4.95h-9.9v-4.95H153.47v-4.95h-9.9v-4.95h-4.95v-5h-9.9v-4.95h-5v-4.95h-9.91v-4.95h-5v-5h5v-4.95h-5v-4.95h5v-5h5v5h5v4.95h5v4.95h4.95v5h5v4.95h9.9v4.95h9.9v4.95H203v-4.95h9.9v-4.95h5v-4.95h9.9v4.95h5v4.95h9.9v4.95h39.6v-4.95h9.9v-4.95H302v-4.95h9.9v-5h9.91v-9.9h4.95v9.9Zm9.9-29.7v4.95h-4.95v5h-4.95v4.95h-9.91v5h-4.95v4.95H302v4.95h-9.9v5h-9.9v4.95h-19.8v-4.95h-4.95v-5h-5v-4.95h-4.95v-4.95h-4.95v-9.9h-5V217.83h-4.95V138.62h9.9v-5h9.9v-9.9h9.9v-5h9.9v-4.95h5v-5h9.9v-5H297V99h5v24.76h4.95v9.9h4.95v14.85h-4.95v4.95h4.95v14.85h-4.95v5h4.95v14.85h5v-29.7h5v24.75h4.95v9.9h4.95v5h4.95V203h4.95v4.95h-4.95v5h-4.95v5h4.95v4.95Z"/><rect class="cls-1" x="386.14" y="84.16" width="4.95" height="4.95"/><rect class="cls-1" x="381.19" y="74.26" width="4.95" height="4.95"/><rect class="cls-1" x="376.24" y="69.31" width="4.95" height="4.95"/><rect class="cls-1" x="371.29" y="64.36" width="4.95" height="4.95"/><rect class="cls-1" x="361.39" y="59.41" width="4.95" height="4.95"/><polygon class="cls-1" points="351.49 133.67 346.54 133.67 346.54 138.62 341.59 138.62 341.59 143.57 341.59 148.52 346.54 148.52 346.54 143.57 351.49 143.57 351.49 138.62 356.44 138.62 356.44 133.67 356.44 128.72 351.49 128.72 351.49 133.67"/><rect class="cls-1" x="351.49" y="64.36" width="4.95" height="4.95"/><rect class="cls-1" x="351.49" y="39.61" width="4.95" height="4.95"/><rect class="cls-1" x="346.54" y="34.66" width="4.95" height="4.95"/><rect class="cls-1" x="341.59" y="69.31" width="4.95" height="4.95"/><rect class="cls-1" x="341.59" y="39.61" width="4.95" height="4.95"/><polygon class="cls-1" points="336.64 123.77 336.64 128.72 341.59 128.72 346.54 128.72 346.54 123.77 346.54 118.82 341.59 118.82 341.59 123.77 336.64 123.77"/><rect class="cls-1" x="336.64" y="113.87" width="4.95" height="4.95"/><rect class="cls-1" x="336.64" y="79.21" width="4.95" height="4.95"/><rect class="cls-1" x="336.64" y="49.51" width="4.95" height="4.95"/><rect class="cls-1" x="331.69" y="108.91" width="4.95" height="4.96"/><rect class="cls-1" x="331.69" y="44.56" width="4.95" height="4.95"/><polygon class="cls-1" points="331.69 123.77 336.64 123.77 336.64 118.82 331.69 118.82 326.74 118.82 326.74 123.77 326.74 128.72 331.69 128.72 331.69 123.77"/><rect class="cls-1" x="326.74" y="59.41" width="4.95" height="4.95"/><rect class="cls-1" x="321.79" y="212.88" width="4.95" height="4.95"/><polygon class="cls-1" points="321.79 108.91 326.74 108.91 326.74 103.96 331.69 103.96 331.69 99.01 331.69 94.06 331.69 89.11 326.74 89.11 326.74 94.06 326.74 99.01 321.79 99.01 321.79 103.96 321.79 108.91"/><rect class="cls-1" x="316.84" y="217.83" width="4.95" height="4.95"/><polygon class="cls-1" points="316.84 198.02 316.84 202.97 311.88 202.97 311.88 207.92 316.84 207.92 321.79 207.92 326.74 207.92 326.74 212.88 331.69 212.88 331.69 207.92 331.69 202.97 326.74 202.97 326.74 198.02 321.79 198.02 321.79 193.07 321.79 188.12 316.84 188.12 316.84 193.07 316.84 198.02"/><rect class="cls-1" x="311.88" y="257.43" width="4.96" height="4.95"/><rect class="cls-1" x="311.88" y="222.78" width="4.96" height="4.95"/><rect class="cls-1" x="306.93" y="287.13" width="4.95" height="4.95"/><rect class="cls-1" x="306.93" y="262.38" width="4.95" height="4.95"/><rect class="cls-1" x="306.93" y="227.73" width="4.95" height="4.95"/><rect class="cls-1" x="306.93" y="207.92" width="4.95" height="4.96"/><rect class="cls-1" x="306.93" y="188.12" width="4.95" height="4.95"/><rect class="cls-1" x="301.98" y="232.68" width="4.95" height="4.95"/><rect class="cls-1" x="301.98" y="193.07" width="4.95" height="4.95"/><rect class="cls-1" x="301.98" y="178.22" width="4.95" height="4.95"/><rect class="cls-1" x="301.98" y="153.47" width="4.95" height="4.95"/><polygon class="cls-1" points="301.98 138.62 301.98 143.57 306.93 143.57 306.93 138.62 306.93 133.67 301.98 133.67 301.98 138.62"/><rect class="cls-1" x="297.03" y="272.28" width="4.95" height="4.95"/><rect class="cls-1" x="297.03" y="183.17" width="4.95" height="4.95"/><rect class="cls-1" x="297.03" y="163.37" width="4.95" height="4.95"/><rect class="cls-1" x="297.03" y="143.57" width="4.95" height="4.95"/><rect class="cls-1" x="292.08" y="188.12" width="4.95" height="4.95"/><rect class="cls-1" x="292.08" y="168.32" width="4.95" height="4.95"/><rect class="cls-1" x="287.13" y="301.98" width="4.95" height="4.95"/><rect class="cls-1" x="287.13" y="277.23" width="4.95" height="4.95"/><rect class="cls-1" x="287.13" y="173.27" width="4.95" height="4.95"/><rect class="cls-1" x="282.18" y="178.22" width="4.95" height="4.95"/><rect class="cls-1" x="277.23" y="306.93" width="4.95" height="4.96"/><rect class="cls-1" x="267.33" y="371.29" width="4.95" height="4.95"/><rect class="cls-1" x="267.33" y="361.39" width="4.95" height="4.95"/><rect class="cls-1" x="267.33" y="311.89" width="4.95" height="4.95"/><rect class="cls-1" x="262.38" y="351.49" width="4.95" height="4.95"/><rect class="cls-1" x="262.38" y="89.11" width="4.95" height="4.95"/><rect class="cls-1" x="257.43" y="94.06" width="4.95" height="4.95"/><rect class="cls-1" x="252.48" y="99.01" width="4.95" height="4.95"/><rect class="cls-1" x="252.48" y="84.16" width="4.95" height="4.95"/><rect class="cls-1" x="247.53" y="103.96" width="4.95" height="4.95"/><rect class="cls-1" x="247.53" y="89.11" width="4.95" height="4.95"/><rect class="cls-1" x="247.53" y="74.26" width="4.95" height="4.95"/><rect class="cls-1" x="242.58" y="311.89" width="4.95" height="4.95"/><rect class="cls-1" x="242.58" y="282.18" width="4.95" height="4.95"/><rect class="cls-1" x="242.58" y="108.91" width="4.95" height="4.96"/><rect class="cls-1" x="242.58" y="94.06" width="4.95" height="4.95"/><rect class="cls-1" x="242.58" y="79.21" width="4.95" height="4.95"/><rect class="cls-1" x="242.58" y="64.36" width="4.95" height="4.95"/><rect class="cls-1" x="237.63" y="113.87" width="4.95" height="4.95"/><rect class="cls-1" x="237.63" y="99.01" width="4.95" height="4.95"/><rect class="cls-1" x="237.63" y="84.16" width="4.95" height="4.95"/><rect class="cls-1" x="237.63" y="69.31" width="4.95" height="4.95"/><rect class="cls-1" x="232.68" y="277.23" width="4.95" height="4.95"/><rect class="cls-1" x="232.68" y="118.82" width="4.95" height="4.95"/><rect class="cls-1" x="232.68" y="103.96" width="4.95" height="4.95"/><rect class="cls-1" x="232.68" y="89.11" width="4.95" height="4.95"/><rect class="cls-1" x="232.68" y="74.26" width="4.95" height="4.95"/><rect class="cls-1" x="227.73" y="326.74" width="4.95" height="4.95"/><rect class="cls-1" x="227.73" y="267.33" width="4.95" height="4.95"/><rect class="cls-1" x="222.78" y="232.68" width="4.95" height="4.95"/><rect class="cls-1" x="222.78" y="222.78" width="4.95" height="4.95"/><rect class="cls-1" x="217.83" y="237.63" width="4.95" height="4.95"/><rect class="cls-1" x="217.83" y="227.73" width="4.95" height="4.95"/><rect class="cls-1" x="217.83" y="217.83" width="4.95" height="4.95"/><rect class="cls-1" x="212.87" y="326.74" width="4.96" height="4.95"/><rect class="cls-1" x="212.87" y="301.98" width="4.96" height="4.95"/><rect class="cls-1" x="212.87" y="277.23" width="4.96" height="4.95"/><rect class="cls-1" x="212.87" y="267.33" width="4.96" height="4.95"/><rect class="cls-1" x="212.87" y="113.87" width="4.96" height="4.95"/><rect class="cls-1" x="212.87" y="99.01" width="4.96" height="4.95"/><rect class="cls-1" x="207.92" y="108.91" width="4.95" height="4.96"/><rect class="cls-1" x="207.92" y="94.06" width="4.95" height="4.95"/><rect class="cls-1" x="207.92" y="79.21" width="4.95" height="4.95"/><rect class="cls-1" x="202.97" y="311.89" width="4.95" height="4.95"/><rect class="cls-1" x="202.97" y="282.18" width="4.95" height="4.95"/><rect class="cls-1" x="202.97" y="103.96" width="4.95" height="4.95"/><rect class="cls-1" x="202.97" y="89.11" width="4.95" height="4.95"/><rect class="cls-1" x="202.97" y="74.26" width="4.95" height="4.95"/><rect class="cls-1" x="198.02" y="99.01" width="4.95" height="4.95"/><rect class="cls-1" x="198.02" y="84.16" width="4.95" height="4.95"/><rect class="cls-1" x="198.02" y="69.31" width="4.95" height="4.95"/><rect class="cls-1" x="193.07" y="94.06" width="4.95" height="4.95"/><rect class="cls-1" x="193.07" y="79.21" width="4.95" height="4.95"/><rect class="cls-1" x="193.07" y="64.36" width="4.95" height="4.95"/><rect class="cls-1" x="188.12" y="89.11" width="4.95" height="4.95"/><rect class="cls-1" x="188.12" y="74.26" width="4.95" height="4.95"/><rect class="cls-1" x="183.17" y="99.01" width="4.95" height="4.95"/><rect class="cls-1" x="183.17" y="84.16" width="4.95" height="4.95"/><rect class="cls-1" x="178.22" y="351.49" width="4.95" height="4.95"/><rect class="cls-1" x="178.22" y="94.06" width="4.95" height="4.95"/><rect class="cls-1" x="173.27" y="371.29" width="4.95" height="4.95"/><rect class="cls-1" x="173.27" y="361.39" width="4.95" height="4.95"/><rect class="cls-1" x="168.32" y="311.89" width="4.95" height="4.95"/><rect class="cls-1" x="168.32" y="282.18" width="4.95" height="4.95"/><rect class="cls-1" x="158.42" y="306.93" width="4.95" height="4.96"/><rect class="cls-1" x="153.47" y="277.23" width="4.95" height="4.95"/><rect class="cls-1" x="148.52" y="168.32" width="4.95" height="4.95"/><rect class="cls-1" x="143.57" y="272.28" width="4.95" height="4.95"/><rect class="cls-1" x="143.57" y="183.17" width="4.95" height="4.95"/><rect class="cls-1" x="143.57" y="163.37" width="4.95" height="4.95"/><rect class="cls-1" x="143.57" y="39.61" width="4.95" height="4.95"/><rect class="cls-1" x="138.62" y="198.02" width="4.95" height="4.95"/><rect class="cls-1" x="138.62" y="178.22" width="4.95" height="4.95"/><rect class="cls-1" x="138.62" y="158.42" width="4.95" height="4.95"/><rect class="cls-1" x="138.62" y="138.62" width="4.95" height="4.95"/><rect class="cls-1" x="138.62" y="118.82" width="4.95" height="4.95"/><rect class="cls-1" x="138.62" y="108.91" width="4.95" height="4.96"/><rect class="cls-1" x="138.62" y="44.56" width="4.95" height="4.95"/><rect class="cls-1" x="133.67" y="262.38" width="4.95" height="4.95"/><rect class="cls-1" x="133.67" y="232.68" width="4.95" height="4.95"/><rect class="cls-1" x="133.67" y="173.27" width="4.95" height="4.95"/><rect class="cls-1" x="133.67" y="153.47" width="4.95" height="4.95"/><rect class="cls-1" x="133.67" y="133.67" width="4.95" height="4.95"/><rect class="cls-1" x="133.67" y="54.46" width="4.95" height="4.95"/><rect class="cls-1" x="128.72" y="222.78" width="4.95" height="4.95"/><rect class="cls-1" x="128.72" y="207.92" width="4.95" height="4.96"/><polygon class="cls-1" points="133.67 193.07 138.62 193.07 138.62 188.12 133.67 188.12 128.72 188.12 128.72 193.07 133.67 193.07"/><rect class="cls-1" x="123.77" y="257.43" width="4.95" height="4.95"/><rect class="cls-1" x="123.77" y="217.83" width="4.95" height="4.95"/><rect class="cls-1" x="113.86" y="252.48" width="4.96" height="4.95"/><rect class="cls-1" x="113.86" y="74.26" width="4.96" height="4.95"/><rect class="cls-1" x="108.91" y="128.72" width="4.95" height="4.95"/><rect class="cls-1" x="108.91" y="118.82" width="4.95" height="4.95"/><rect class="cls-1" x="108.91" y="108.91" width="4.95" height="4.96"/><rect class="cls-1" x="103.96" y="138.62" width="4.95" height="4.95"/><polygon class="cls-1" points="103.96 123.77 99.01 123.77 99.01 128.72 103.96 128.72 108.91 128.72 108.91 123.77 103.96 123.77"/><rect class="cls-1" x="103.96" y="113.87" width="4.95" height="4.95"/><polygon class="cls-1" points="103.96 99.01 103.96 103.96 108.91 103.96 108.91 99.01 108.91 94.06 103.96 94.06 103.96 99.01"/><rect class="cls-1" x="103.96" y="59.41" width="4.95" height="4.95"/><rect class="cls-1" x="99.01" y="143.57" width="4.95" height="4.95"/><polygon class="cls-1" points="103.96 64.36 99.01 64.36 99.01 59.41 94.06 59.41 94.06 54.46 89.11 54.46 84.16 54.46 84.16 49.51 79.21 49.51 74.26 49.51 74.26 54.46 79.21 54.46 79.21 59.41 84.16 59.41 89.11 59.41 89.11 64.36 94.06 64.36 94.06 69.31 99.01 69.31 99.01 74.26 103.96 74.26 103.96 69.31 103.96 64.36"/><rect class="cls-1" x="94.06" y="118.82" width="4.95" height="4.95"/><rect class="cls-1" x="94.06" y="49.51" width="4.95" height="4.95"/><polygon class="cls-1" points="94.06 123.77 89.11 123.77 89.11 128.72 89.11 133.67 94.06 133.67 99.01 133.67 99.01 128.72 94.06 128.72 94.06 123.77"/><rect class="cls-1" x="89.11" y="39.61" width="4.95" height="4.95"/><polygon class="cls-1" points="84.16 138.62 84.16 133.67 84.16 128.72 79.21 128.72 79.21 123.77 74.26 123.77 69.31 123.77 69.31 118.82 64.36 118.82 64.36 123.77 64.36 128.72 69.31 128.72 74.26 128.72 74.26 133.67 79.21 133.67 79.21 138.62 79.21 143.57 84.16 143.57 89.11 143.57 89.11 138.62 84.16 138.62"/><rect class="cls-1" x="84.16" y="44.56" width="4.95" height="4.95"/><rect class="cls-1" x="79.21" y="39.61" width="4.95" height="4.95"/><rect class="cls-1" x="74.26" y="64.36" width="4.95" height="4.95"/><rect class="cls-1" x="69.31" y="54.46" width="4.95" height="4.95"/><rect class="cls-1" x="64.36" y="74.26" width="4.95" height="4.95"/><rect class="cls-1" x="64.36" y="59.41" width="4.95" height="4.95"/><rect class="cls-1" x="59.41" y="64.36" width="4.95" height="4.95"/><rect class="cls-1" x="54.46" y="84.16" width="4.95" height="4.95"/><rect class="cls-1" x="54.46" y="69.31" width="4.95" height="4.95"/><rect class="cls-1" x="49.51" y="94.06" width="4.95" height="4.95"/><rect class="cls-1" x="49.51" y="74.26" width="4.95" height="4.95"/><polygon class="cls-1" points="44.56 89.11 44.56 94.06 49.51 94.06 49.51 89.11 49.51 84.16 49.51 79.21 44.56 79.21 44.56 84.16 44.56 89.11"/><polygon class="cls-1" points="34.66 103.96 39.61 103.96 44.56 103.96 44.56 108.91 49.51 108.91 49.51 113.87 54.46 113.87 54.46 118.82 59.41 118.82 64.36 118.82 64.36 113.87 59.41 113.87 59.41 108.91 59.41 103.96 54.46 103.96 49.51 103.96 49.51 99.01 44.56 99.01 39.61 99.01 39.61 94.06 34.66 94.06 34.66 99.01 34.66 103.96"/></g></svg>