<svg xmlns="http://www.w3.org/2000/svg" viewBox="0 0 330.93 445.55"><defs><style>.cls-1{fill:#999;}</style></defs><g id="legs"><path class="cls-1" d="M326,401v-9.9h-5v-9.9h-4.95v-4.95h-4.95v-4.95h-4.95v-5h-4.95v-4.95H286.38v-4.95h-4.95v-4.95h-4.95v-4.95h-9.9v-9.9h-4.95V311.88h-5V302h-5v-5h-4.95v-4.95h-5v-69.3h5v4.95h9.9v-9.9h5v-9.91h4.95V198h-4.95V133.67h4.95V118.82h4.95v-5h5V104h4.95v-9.9h4.95v-9.9h4.95v-9.9h4.95V39.61h-4.95v-9.9h-4.95V9.9h-4.95V5h-9.9V0H246.77V5h-5v5h-9.9v4.95H222v5h-9.9v5h-9.9v4.95H187.37v4.95h-9.9v5h-4.95v49.5h4.95v5h-4.95V104h-5v14.86h-4.95v19.8h4.95v9.9h-4.95v9.9h-5v34.65h5v24.76h4.95v29.7h5v9.9h-5v19.8h5v4.95h-5v29.7h-4.95v14.86h-5v19.8h-4.95v19.8h4.95v5h5v4.95h4.95v4.95h9.9v4.95h14.85v4.95h19.8v5h19.8V401h9.9v4.95h9.9v4.95h9.91v5h9.9v4.95h39.6v-4.95H321v-5h9.9V401Zm-39.6-29.7h-4.95v4.95h-9.9v4.95h-4.95v4.95h-4.95v-4.95h-5v4.95h-5V396h-4.95v-5h-9.9v-9.9h4.95v-4.95h9.9v-4.95h5v-5h5v-4.95h14.85v4.95h9.9Zm-29.71-34.65v9.9h-9.9v4.95H231.92v4.95H227v-4.95H222v4.95h-19.8v-4.95h4.95v-4.95h9.9v4.95h5v-4.95H227v-5h9.9v-4.95h14.85v-4.95h5Zm14.86-227.73h-9.9v-5h-9.91V99h-9.9v-5h-9.9v-5H227v-9.9H222v5h-5v-5h5v-9.9h9.9v5h5v-5h9.9v5h4.95v-5h24.76v-5h9.9v5h-4.95v9.9h-4.95v9.9h-5v19.8ZM261.63,5h4.95v5h-9.91v4.95h-5V9.9h5V5ZM207.17,34.66h5V29.71H222V24.76h9.9v-5h5v-5h9.9v5h-5v5h-9.9v4.95H227v4.95H222v5h-5v5H227v-5h4.95v-5h5V29.71h9.9V24.76h4.95v-5h5v5h5V14.85h14.85V29.71h4.95v19.8h4.95v9.9h-19.8v5h-4.95v-5h-5v5H222v-9.9h-5v-9.9h-9.9v-5h-4.95v-5Zm-29.7,9.9h4.95v-5h5v5h-5v4.95h-4.95Zm0,39.6V59.41h4.95V54.46h5v-5h4.95V44.56h9.9v4.95h9.9v9.9h4.95V74.26h-4.95v9.9h-5v5H182.42v-5Zm0,14.85h4.95V104h9.9V99h5v-5h14.85v-5h4.95v5H227v5h9.9V104h9.9v5h9.9v5h5v9.91h-5v14.85h-5v39.6h-4.95v4.95h9.9V198h-5V203h5v9.9h-5v5h-9.9v-5h-9.9v-39.6H227V158.42H222V143.57h-5V128.72h-4.95v4.95h-5v5h5v9.9h4.95v14.85h5v4.95h-5v5h5v4.95H227v4.95H222v5H227V203H222v4.95H227v9.91h9.9v14.85h-5v49.5h5V297h-5v5H222v4.95h-5v4.95h-4.95v5h4.95v5h5v-9.91H227v-4.95h9.9V302h9.9v14.86h4.95v9.9h-4.95v4.95H231.92v4.95H227v-4.95H222v4.95h-5v4.95h-19.8v-9.9h4.95v-4.95h4.95v-4.95h5v-5h-9.9v5h-4.95V306.93h4.95V297h4.95V222.78h-4.95V193.07h-4.95v-59.4h-5V118.82h9.9v5h4.95v5h5v-9.9h-5v-5h-4.95V104h-9.9v5h5v5H182.42v-5h-4.95V99Zm0,212.87h4.95v-19.8h14.85V302h-5v24.76h-9.9v-4.95h-4.95v-9.91Zm14.85-34.65v-9.9h5v4.95h4.95v9.9h-9.9Zm-4.95-19.8h-5v-29.7h-4.95V207.92h-4.95V198h4.95v-5h14.85v5h5V203h-5v4.95h5v9.91h-5v4.95h5v4.95h4.95v9.9h-9.9v5h9.9v9.9h-4.95v5h4.95v4.95h-9.9v-4.95Zm-19.8-123.76v-9.9h5v-9.91h4.95v5h4.95v14.85h5v5h4.95v4.95h-4.95v-4.95h-5v-5h-4.95v5h-4.95v-5Zm0,19.8h5v-4.95h19.8v4.95h-4.95v4.95h4.95v9.9h-9.9v5h9.9v4.95h-4.95v4.95h4.95v5h-9.9V173.27h-4.95v-5h4.95v-4.95h-9.9v-5h-5Zm-4.95,34.65V163.37h4.95v4.95h5v9.9h4.95v9.9h-4.95v4.95h-5v-4.95Zm14.85,89.11v-5h-4.95v-9.9h14.85v24.75h-5v-4.95h-4.95Zm9.9,104v-4.95h-9.9v-4.95h-4.95v-5h-5v-4.95h5v-4.95h-5v-4.95h5v-4.95h-5v-5h9.9v-4.95h-4.95v-4.95h4.95v4.95h9.9v4.95h4.95v5h5v14.85H227v4.95h4.95v-4.95h5v-4.95h14.85v-4.95h9.91v4.95h-5v4.95h-5v4.95h-9.9v5h-4.95v4.95h-5v4.95H222v-4.95h-5v4.95h-4.95v-4.95h-5v4.95h-9.9v-4.95h-5v4.95Zm128.71,24.75h-9.9v4.95h-9.9v-4.95h-4.95v4.95h-4.95v-4.95h-4.95v4.95h-4.95V401h-5v4.95h-9.9V401h-5V396h5v-5h4.95v5h4.95v-9.9h5v-4.95h9.9v-4.95h4.95v-4.95h9.9v4.95h4.95v4.95h4.95v4.95h4.95V396H321v9.9Z"/><rect class="cls-1" x="286.38" y="400.99" width="4.95" height="4.95"/><rect class="cls-1" x="276.48" y="396.04" width="4.95" height="4.95"/><rect class="cls-1" x="266.58" y="49.51" width="4.95" height="4.95"/><rect class="cls-1" x="266.58" y="39.61" width="4.95" height="4.95"/><rect class="cls-1" x="261.63" y="396.04" width="4.95" height="4.95"/><rect class="cls-1" x="261.63" y="54.46" width="4.95" height="4.95"/><rect class="cls-1" x="261.63" y="44.56" width="4.95" height="4.95"/><rect class="cls-1" x="261.63" y="34.66" width="4.95" height="4.95"/><rect class="cls-1" x="261.63" y="24.76" width="4.95" height="4.95"/><rect class="cls-1" x="256.67" y="74.26" width="4.96" height="4.95"/><rect class="cls-1" x="256.67" y="49.51" width="4.96" height="4.95"/><rect class="cls-1" x="256.67" y="39.61" width="4.96" height="4.95"/><rect class="cls-1" x="256.67" y="29.71" width="4.96" height="4.95"/><rect class="cls-1" x="251.72" y="376.24" width="4.95" height="4.95"/><rect class="cls-1" x="251.72" y="118.82" width="4.95" height="4.95"/><rect class="cls-1" x="251.72" y="79.21" width="4.95" height="4.95"/><rect class="cls-1" x="251.72" y="54.46" width="4.95" height="4.95"/><rect class="cls-1" x="251.72" y="44.56" width="4.95" height="4.95"/><rect class="cls-1" x="251.72" y="34.66" width="4.95" height="4.95"/><rect class="cls-1" x="251.72" y="24.76" width="4.95" height="4.95"/><rect class="cls-1" x="246.77" y="381.19" width="4.95" height="4.95"/><rect class="cls-1" x="246.77" y="133.67" width="4.95" height="4.95"/><rect class="cls-1" x="246.77" y="84.16" width="4.95" height="4.95"/><rect class="cls-1" x="246.77" y="49.51" width="4.95" height="4.95"/><rect class="cls-1" x="246.77" y="39.61" width="4.95" height="4.95"/><rect class="cls-1" x="246.77" y="29.71" width="4.95" height="4.95"/><rect class="cls-1" x="241.82" y="158.42" width="4.95" height="4.95"/><rect class="cls-1" x="241.82" y="89.11" width="4.95" height="4.95"/><rect class="cls-1" x="241.82" y="74.26" width="4.95" height="4.95"/><rect class="cls-1" x="236.87" y="361.39" width="4.95" height="4.95"/><rect class="cls-1" x="236.87" y="79.21" width="4.95" height="4.95"/><rect class="cls-1" x="231.92" y="366.34" width="4.95" height="4.95"/><rect class="cls-1" x="231.92" y="84.16" width="4.95" height="4.95"/><rect class="cls-1" x="226.97" y="346.54" width="4.95" height="4.95"/><rect class="cls-1" x="226.97" y="326.74" width="4.95" height="4.95"/><rect class="cls-1" x="226.97" y="287.13" width="4.95" height="4.95"/><rect class="cls-1" x="226.97" y="222.78" width="4.95" height="4.95"/><rect class="cls-1" x="226.97" y="74.26" width="4.95" height="4.95"/><rect class="cls-1" x="222.02" y="321.79" width="4.95" height="4.95"/><rect class="cls-1" x="222.02" y="292.08" width="4.95" height="4.95"/><rect class="cls-1" x="222.02" y="217.83" width="4.95" height="4.95"/><rect class="cls-1" x="217.07" y="326.74" width="4.95" height="4.95"/><rect class="cls-1" x="212.12" y="321.79" width="4.95" height="4.95"/><rect class="cls-1" x="212.12" y="297.03" width="4.95" height="4.95"/><rect class="cls-1" x="212.12" y="94.06" width="4.95" height="4.95"/><rect class="cls-1" x="207.17" y="306.93" width="4.95" height="4.95"/><rect class="cls-1" x="207.17" y="153.47" width="4.95" height="4.95"/><rect class="cls-1" x="207.17" y="108.91" width="4.95" height="4.95"/><rect class="cls-1" x="202.22" y="99.01" width="4.95" height="4.95"/><rect class="cls-1" x="187.37" y="366.34" width="4.95" height="4.95"/><polygon class="cls-1" points="187.37 79.21 192.32 79.21 197.27 79.21 197.27 74.26 202.22 74.26 202.22 69.31 202.22 64.36 197.27 64.36 197.27 59.41 192.32 59.41 187.37 59.41 187.37 64.36 182.42 64.36 182.42 69.31 182.42 74.26 187.37 74.26 187.37 79.21"/><rect class="cls-1" x="182.42" y="356.44" width="4.95" height="4.95"/><rect class="cls-1" x="182.42" y="346.54" width="4.95" height="4.95"/><rect class="cls-1" x="182.42" y="158.42" width="4.95" height="4.95"/><rect class="cls-1" x="177.47" y="366.34" width="4.95" height="4.95"/><rect class="cls-1" x="177.47" y="341.59" width="4.95" height="4.95"/><rect class="cls-1" x="172.52" y="361.39" width="4.95" height="4.95"/><rect class="cls-1" x="172.52" y="351.49" width="4.95" height="4.95"/><path class="cls-1" d="M128.71,188.12v-9.9h-5V143.57h5V128.72h-5v-5h5V108.91h4.95V89.11h5v-9.9h-5V64.36h-4.95v-5h-5V54.46h-9.9v-9.9h-5v-9.9h-5V29.71H99V24.76h-5v-5h-5v-5H74.26V9.9h-5V5H44.56v5H34.65v4.95H29.7v5H24.75v19.8H19.8V64.36h-5V79.21h5v9.9h4.95V99H29.7V212.87h4.95v9.91h5v14.85h5v69.3h-5v9.91h-5v9.9H29.7v14.85h4.95v9.9H29.7v14.85H19.8v5h-5v14.85H9.9v4.95H5V401H0V430.7H5v9.9h5v4.95H39.61V440.6h9.9v-5H64.36V430.7h5v-4.95h5V420.8h4.95v-4.95h5v-5h5v-4.95h5V401h5V396H104v-5h5v-9.9h5v-4.95h5V341.59h-5V311.88h-5v-19.8h5v-4.95h5v-19.8h-5v-9.9h-5v-19.8h5V207.92h5V203h5v-9.9h5Zm-9.9-59.4v19.8h-5v29.7h-5v-29.7h-5v-5h5v-9.9h5v-9.9h5Zm0-69.31v5h5v5h5V94.06h-5v5h-9.9v-5h-5V69.31h5v-9.9ZM44.56,14.85H59.41v5H39.61v-5ZM29.7,34.66V29.71h4.95V24.76h9.91v4.95h4.95V24.76H64.36v-5h9.9v5h9.9v4.95h5v4.95h5v5h5v5H104v4.95h5v9.9h-5V54.46H99v9.9H104v9.9H64.36v-5h-5v5H54.46v-5H34.65v-5H29.7V39.61h4.95v-5Zm4.95,59.4v-9.9H29.7v-9.9H24.75v-5H29.7v5H49.51v4.95H64.36v5h5v-5H104v9.9H99V99h-5V104h-9.9v5h-5v5H64.36v5H44.56v-5h-5V99h-5Zm5,123.77V123.77h9.9v5h9.9v-5h9.9v-5H84.16v-5h5v-5H99v-5H104V99h5V104h5v5h5v5h-5v5h-5v9.9h-5v9.9H99v9.9h-5v19.8h-5v19.8h5V173.27h5v-19.8H104v24.75H99V203h-5v24.76h-5v14.85h-5v4.95h5v9.9h-5v4.95h5v9.9h-5v5h5v9.9h-5v4.95h5v14.85h5v9.91h-9.9v-5h-5V302H74.26v4.95H59.41V302H54.46v-59.4h4.95v-5h9.9v-4.95h5v-5H89.11V188.12h-5v34.66H69.31v4.95h-5v5h-9.9v-5h-5v-4.95H44.56v-4.95Zm5,133.66v-4.95H59.41v4.95h5v-4.95h5v4.95H84.16v4.95h5v4.95h-9.9v4.95H64.36v-9.9h-5v4.95H54.46v-4.95h-5v4.95h-9.9v-9.9Zm0,79.21v-4.95h-5v4.95h-5v4.95H29.7V430.7H24.75v4.95h-9.9V430.7H9.9V396h9.9v-5H34.65v-4.95H19.8v-4.95h4.95v-9.9H29.7v4.95H54.46v4.95H69.31v4.95h5v4.95h4.95v5h5V401h-5v4.95H74.26V401h-9.9V396H49.51v-5H34.65v5h9.91V401H59.41v4.95h9.9v9.91h-5v4.95h-5v4.95h-9.9v4.95ZM99,381.19v4.95h-5v4.95h-5v-4.95h-9.9v-4.95H74.26v-4.95H59.41v-4.95H34.65v-5H59.41v5H84.16v-5h9.9v-4.95H104v9.9H99v4.95H104v4.95Zm9.9-39.6v14.85H99v-4.95h-9.9v-4.95H74.26v-5h-5v-4.95h-5v4.95h-5v-4.95H54.46v4.95H39.61V326.74h5V311.88H69.31v5h9.9v5h9.9v4.95h5v4.95h5v4.95h9.9Zm-5-29.71v14.86H99V306.93H104Zm5-39.6v14.85h-5v-19.8h5Zm0-59.41h-5v29.71H99V302h-5v-69.3h5V207.92H104V183.17h5v29.7Zm9.9-24.75V198h-5V183.17h9.9v5Z"/><polygon class="cls-1" points="123.76 84.16 123.76 79.21 123.76 74.26 118.81 74.26 118.81 79.21 118.81 84.16 118.81 89.11 123.76 89.11 123.76 84.16"/><rect class="cls-1" x="99.01" y="346.54" width="4.95" height="4.95"/><rect class="cls-1" x="99.01" y="118.82" width="4.95" height="4.95"/><rect class="cls-1" x="99.01" y="108.91" width="4.95" height="4.95"/><rect class="cls-1" x="94.06" y="376.24" width="4.95" height="4.95"/><rect class="cls-1" x="94.06" y="336.64" width="4.95" height="4.95"/><rect class="cls-1" x="94.06" y="123.77" width="4.95" height="4.95"/><rect class="cls-1" x="94.06" y="49.51" width="4.95" height="4.95"/><rect class="cls-1" x="89.11" y="381.19" width="4.95" height="4.95"/><rect class="cls-1" x="89.11" y="341.59" width="4.95" height="4.95"/><rect class="cls-1" x="89.11" y="143.57" width="4.95" height="4.95"/><rect class="cls-1" x="89.11" y="133.67" width="4.95" height="4.95"/><rect class="cls-1" x="89.11" y="113.86" width="4.95" height="4.96"/><rect class="cls-1" x="89.11" y="94.06" width="4.95" height="4.95"/><rect class="cls-1" x="89.11" y="84.16" width="4.95" height="4.95"/><rect class="cls-1" x="89.11" y="44.56" width="4.95" height="4.95"/><rect class="cls-1" x="84.16" y="371.29" width="4.95" height="4.95"/><rect class="cls-1" x="84.16" y="306.93" width="4.95" height="4.95"/><rect class="cls-1" x="84.16" y="123.77" width="4.95" height="4.95"/><rect class="cls-1" x="84.16" y="89.11" width="4.95" height="4.95"/><rect class="cls-1" x="79.21" y="376.24" width="4.95" height="4.95"/><rect class="cls-1" x="79.21" y="297.03" width="4.95" height="4.95"/><rect class="cls-1" x="79.21" y="282.18" width="4.95" height="4.95"/><rect class="cls-1" x="79.21" y="267.33" width="4.95" height="4.95"/><rect class="cls-1" x="79.21" y="252.48" width="4.95" height="4.95"/><rect class="cls-1" x="79.21" y="237.63" width="4.95" height="4.95"/><rect class="cls-1" x="79.21" y="94.06" width="4.95" height="4.95"/><rect class="cls-1" x="74.26" y="396.04" width="4.95" height="4.95"/><rect class="cls-1" x="74.26" y="326.74" width="4.95" height="4.95"/><rect class="cls-1" x="74.26" y="292.08" width="4.95" height="4.95"/><rect class="cls-1" x="74.26" y="277.23" width="4.95" height="4.95"/><rect class="cls-1" x="74.26" y="262.38" width="4.95" height="4.95"/><rect class="cls-1" x="74.26" y="247.53" width="4.95" height="4.95"/><rect class="cls-1" x="74.26" y="232.68" width="4.95" height="4.95"/><rect class="cls-1" x="74.26" y="99.01" width="4.95" height="4.95"/><rect class="cls-1" x="74.26" y="84.16" width="4.95" height="4.95"/><rect class="cls-1" x="69.31" y="331.69" width="4.95" height="4.95"/><rect class="cls-1" x="69.31" y="321.79" width="4.95" height="4.95"/><rect class="cls-1" x="69.31" y="287.13" width="4.95" height="4.95"/><rect class="cls-1" x="69.31" y="272.28" width="4.95" height="4.95"/><rect class="cls-1" x="69.31" y="257.43" width="4.95" height="4.95"/><rect class="cls-1" x="69.31" y="242.58" width="4.95" height="4.95"/><rect class="cls-1" x="69.31" y="103.96" width="4.95" height="4.95"/><rect class="cls-1" x="69.31" y="89.11" width="4.95" height="4.95"/><rect class="cls-1" x="64.36" y="351.49" width="4.95" height="4.95"/><rect class="cls-1" x="64.36" y="326.74" width="4.95" height="4.95"/><rect class="cls-1" x="64.36" y="316.84" width="4.95" height="4.95"/><rect class="cls-1" x="64.36" y="297.03" width="4.95" height="4.95"/><rect class="cls-1" x="64.36" y="94.06" width="4.95" height="4.95"/><polygon class="cls-1" points="69.31 29.71 69.31 34.66 74.26 34.66 74.26 39.61 79.21 39.61 84.16 39.61 84.16 44.56 89.11 44.56 89.11 39.61 89.11 34.66 84.16 34.66 79.21 34.66 79.21 29.71 74.26 29.71 74.26 24.76 69.31 24.76 64.36 24.76 64.36 29.71 69.31 29.71"/><rect class="cls-1" x="59.41" y="331.69" width="4.95" height="4.95"/><rect class="cls-1" x="59.41" y="321.79" width="4.95" height="4.95"/><rect class="cls-1" x="59.41" y="292.08" width="4.95" height="4.95"/><rect class="cls-1" x="59.41" y="84.16" width="4.95" height="4.95"/><rect class="cls-1" x="59.41" y="59.41" width="4.95" height="4.95"/><rect class="cls-1" x="54.46" y="410.89" width="4.95" height="4.96"/><rect class="cls-1" x="54.46" y="351.49" width="4.95" height="4.95"/><rect class="cls-1" x="54.46" y="222.78" width="4.95" height="4.95"/><rect class="cls-1" x="54.46" y="212.87" width="4.95" height="4.96"/><rect class="cls-1" x="54.46" y="202.97" width="4.95" height="4.95"/><rect class="cls-1" x="54.46" y="188.12" width="4.95" height="4.95"/><rect class="cls-1" x="54.46" y="173.27" width="4.95" height="4.95"/><rect class="cls-1" x="54.46" y="148.52" width="4.95" height="4.95"/><rect class="cls-1" x="54.46" y="64.36" width="4.95" height="4.95"/><rect class="cls-1" x="54.46" y="54.46" width="4.95" height="4.95"/><rect class="cls-1" x="54.46" y="44.56" width="4.95" height="4.95"/><rect class="cls-1" x="54.46" y="34.66" width="4.95" height="4.95"/><rect class="cls-1" x="49.51" y="415.85" width="4.95" height="4.95"/><rect class="cls-1" x="49.51" y="59.41" width="4.95" height="4.95"/><rect class="cls-1" x="49.51" y="49.51" width="4.95" height="4.95"/><rect class="cls-1" x="49.51" y="39.61" width="4.95" height="4.95"/><rect class="cls-1" x="49.51" y="29.71" width="4.95" height="4.95"/><rect class="cls-1" x="44.56" y="420.8" width="4.95" height="4.95"/><rect class="cls-1" x="44.56" y="54.46" width="4.95" height="4.95"/><rect class="cls-1" x="44.56" y="44.56" width="4.95" height="4.95"/><rect class="cls-1" x="44.56" y="34.66" width="4.95" height="4.95"/><rect class="cls-1" x="39.61" y="59.41" width="4.95" height="4.95"/><rect class="cls-1" x="29.7" y="425.75" width="4.95" height="4.95"/><rect class="cls-1" x="24.75" y="420.8" width="4.95" height="4.95"/><rect class="cls-1" x="24.75" y="396.04" width="4.95" height="4.95"/><rect class="cls-1" x="14.85" y="400.99" width="4.95" height="4.95"/></g></svg>