<svg xmlns="http://www.w3.org/2000/svg" viewBox="0 0 301.98 401"><defs><style>.cls-1{fill:#999;}</style></defs><g id="helmet"><path class="cls-1" d="M297,346.54v-5h-4.95v-4.95h-4.95v-9.9h-4.95V311.89h-4.95V133.67h-5V118.82h-4.95V104h-4.95V99h-4.95v-5h-5v-5h-5v-5h-5v-5h-4.95V74.26h-5v-5h-9.9v-5h-5v-5h-4.95V54.46H203v-5H198V44.56h-5v-5h-4.95v-5h-5V29.71h-4.95V24.76h-4.95v-5h-5V14.86h-4.95V9.91h-5V5h-4.95V0h-5V5h-4.95v5h-4.95v4.95h-5v4.95h-4.95v5h-5v4.95h-5v4.95h-5v5H104v5H99v4.95h-9.9v5h-5v4.95h-9.9v5h-5v5h-5v5h-5v4.95H54.46v5h-5v5h-5v5H39.6V104h-5v9.9H29.7v19.8H24.75v29.7H19.8V306.94h-5v24.75H9.9v9.9H5v5H0v4.95H5v4.95h5v4.95h4.95v4.95h5v5h4.95v4.95H29.7v4.95h9.9v4.95h9.9v4.95H64.36v5H79.21v5h54.45v-5h5v-9.9h-5v-19.8h-4.95v-19.8h44.56v29.7h-5v14.85h-4.95v5h4.95v5H203v-5h29.7v-5h14.85v-4.95h14.86v-4.95h4.95v-4.95h9.9v-4.95h9.9v-9.9h4.95v-4.95H297v-4.95h5v-4.95ZM178.22,39.61v5h4.95v9.9h9.9v4.95h5v5h9.9v9.9h9.9v4.95h9.9v5h9.9v5h4.95V99h5v9.91h9.91v5h-5v4.95h9.9v5h-4.95v5h4.95v9.9h4.95v9.9h4.95v9.9h-4.95v5h-4.95v-9.9h-9.9v-4.95h-9.91v-5h-9.9v-4.95h-9.9v-5h-5v5h-9.9v-5H203v5h-9.9v-5h-4.95v5h-5v4.95h-9.9v-4.95h-5v-9.9h5v-5h-5v-9.9h5v-5h-5V99h5v-5h-5v-9.9h5v-5h-5v-9.9h5v-5h-5v-9.9h5v-5h-5v-9.9h5v-5h4.95ZM163.37,148.52h-5v4.95h-4.95v-9.9h4.95v-4.95h-4.95v-9.9h4.95v-5h-4.95v-9.9h4.95v-5h-4.95V99h4.95v-5h-4.95v-9.9h4.95v-5h-4.95v-9.9h4.95v-5h-4.95v-9.9h4.95v-5h-4.95v-9.9h4.95v-5h-4.95V19.81h4.95v5h5v4.95h-5v4.95h5v9.9h-5v4.95h5v9.9h-5v5h5v9.9h-5v4.95h5v9.9h-5v5h5V104h-5v5h5v9.9h-5v5h5v9.9h-5v5h5v9.9Zm-24.76,0v-9.9h4.95v-5h-4.95v-9.9h4.95v-5h-4.95v-9.9h4.95v-5h-4.95V94.06h4.95v-5h-4.95v-9.9h4.95V74.26h-4.95v-9.9h4.95v-5h-4.95v-9.9h4.95V44.56h-4.95v-9.9h4.95V29.71h-4.95V24.76h4.95v-5h4.95V34.66h-4.95v5h4.95v9.9h-4.95v5h4.95v9.9h-4.95v5h4.95v9.9h-4.95v5h4.95v9.9h-4.95v5h4.95v9.91h-4.95v5h4.95v9.9h-4.95v5h4.95v9.9h-4.95v4.95h4.95v9.9h-4.95v-4.95ZM29.7,158.42h4.95v-9.9h5v-5h-5v-4.95h9.9v-5H39.6v-9.9h4.95v-9.9h5V104h5V94.06h4.95v-5h9.9v-9.9h5v5h4.95v-9.9h5v-9.9h5v5h5v-9.9h5v5H104v-9.9h5v-5h9.9v-9.9h5v5h5v-9.9h4.95v9.9h-4.95v4.95h4.95v9.9h-4.95v5h4.95v9.9h-4.95v4.95h4.95v9.9h-4.95v5h4.95V104h-4.95v5h4.95v9.9h-4.95v5h4.95v9.9h-4.95v5h4.95v4.95h-9.9v-4.95h-5v-5h-5v5H104v-5H99v5h-9.9v-5h-5v5h-9.9v4.95h-9.9v5h-9.9v-5h-5v9.9h-5v4.95h-9.9v9.9H29.7v-9.9Zm9.9,123.76v4.95h4.95v4.95h5V297h5v5h9.9v4.95h9.9v4.95H89.11v4.95h5v5h5v44.55H104v19.8h5v4.95H99v-4.95H79.21v-4.95H64.36v-4.95H49.5v-4.95H39.6v-5h-5v-4.95h-9.9v-4.95H29.7v-4.95h4.95v-4.95H29.7v-5h9.9v-4.95h-5v-9.9h5v-4.95h-5v-9.9h5v-4.95h-5V297h5v-4.95h-5V277.23h5Zm89.11,59.41v-4.95h4.95v4.95Zm9.9,0v-4.95h4.95v4.95Zm9.9,0v-4.95h5v4.95Zm9.91,0v-4.95h5v4.95Zm9.9,0v-4.95h5v4.95Zm14.85,34.65V297h5v-4.95H198v-4.95H203v-4.95h14.85v-4.95h5v-5h9.9v-4.95h5v-4.95h4.95v-9.9h5V188.12h-5v-9.9h-9.9v-4.95H217.82v-5H183.17v5H168.32v54.46h5v14.85h9.9v4.95h-4.95v4.95h-9.9v5h-9.9v4.95h-4.95v4.95h-5v-4.95h-4.95v-4.95h-9.9v-5h-9.9v-4.95h-5v-4.95h9.9V227.73h4.95V173.27H118.81v-5H79.21v5H64.36v4.95h-5v4.95H54.46v64.36h4.95v9.9h5v9.9h5v9.9h9.9v4.95h5v4.95h9.9v4.95H104V297h14.85v69.31h5v14.85h5v9.9h-9.9v-4.95h-5v-4.95h-5v-19.8h-5V316.84H99v-4.95h-5v-4.95H79.21V302h-9.9v-5h-9.9v-4.95H54.46v-4.95h-5v-4.95h-5v-9.9H39.6v-4.95h-5V252.48H29.7V178.22h4.95v-4.95h5v-5h4.95v-4.95h5v-5h9.91v-4.95h9.9v-4.95h9.9v-5h39.6v5h9.9v4.95h9.9v4.95h4.95v5h4.95v99h5v-99h4.95v-5h5v-4.95h4.95v-4.95h19.8v-5h39.6v5h9.9v4.95h9.9v4.95h5v5h5v4.95h4.95v5h4.95v9.9h4.95v49.51h-4.95v24.75h-4.95v9.9h-4.95v9.9h4.95v14.85h-4.95V297h4.95v9.91h-4.95v4.95h4.95v9.9h4.95v9.9h-4.95v4.95h4.95v9.9h4.95v9.9h5v4.95h-5v4.95h-4.95v-4.95h-4.95v4.95h-4.95v5h-5v4.95H237.62v4.95H222.77v4.95H198v-9.9h-5v9.9h-4.95v4.95h-9.9V376.24Z"/><rect class="cls-1" x="267.33" y="356.44" width="4.95" height="4.95"/><rect class="cls-1" x="262.38" y="346.54" width="4.95" height="4.95"/><rect class="cls-1" x="262.38" y="148.52" width="4.95" height="4.95"/><rect class="cls-1" x="257.43" y="351.49" width="4.95" height="4.95"/><rect class="cls-1" x="257.43" y="336.64" width="4.95" height="4.95"/><rect class="cls-1" x="257.43" y="321.79" width="4.95" height="4.95"/><rect class="cls-1" x="257.43" y="138.62" width="4.95" height="4.95"/><rect class="cls-1" x="252.48" y="356.44" width="4.95" height="4.95"/><rect class="cls-1" x="252.48" y="341.59" width="4.95" height="4.95"/><rect class="cls-1" x="252.48" y="326.74" width="4.95" height="4.95"/><rect class="cls-1" x="252.48" y="311.89" width="4.95" height="4.95"/><rect class="cls-1" x="252.48" y="297.03" width="4.95" height="4.96"/><polygon class="cls-1" points="252.48 282.18 247.52 282.18 242.57 282.18 242.57 287.13 237.62 287.13 237.62 292.08 232.67 292.08 227.72 292.08 227.72 297.03 222.77 297.03 222.77 301.99 227.72 301.99 232.67 301.99 232.67 297.03 237.62 297.03 242.57 297.03 242.57 292.08 247.52 292.08 247.52 287.13 252.48 287.13 257.43 287.13 257.43 282.18 257.43 277.23 252.48 277.23 252.48 282.18"/><rect class="cls-1" x="252.48" y="143.57" width="4.95" height="4.95"/><rect class="cls-1" x="252.48" y="128.72" width="4.95" height="4.95"/><rect class="cls-1" x="247.52" y="361.39" width="4.96" height="4.95"/><rect class="cls-1" x="247.52" y="346.54" width="4.96" height="4.95"/><rect class="cls-1" x="247.52" y="331.69" width="4.96" height="4.95"/><rect class="cls-1" x="247.52" y="316.84" width="4.96" height="4.95"/><rect class="cls-1" x="247.52" y="301.99" width="4.96" height="4.95"/><rect class="cls-1" x="247.52" y="133.67" width="4.96" height="4.95"/><rect class="cls-1" x="247.52" y="118.82" width="4.96" height="4.95"/><rect class="cls-1" x="242.57" y="351.49" width="4.95" height="4.95"/><rect class="cls-1" x="242.57" y="336.64" width="4.95" height="4.95"/><rect class="cls-1" x="242.57" y="321.79" width="4.95" height="4.95"/><rect class="cls-1" x="242.57" y="306.94" width="4.95" height="4.95"/><rect class="cls-1" x="242.57" y="138.62" width="4.95" height="4.95"/><rect class="cls-1" x="242.57" y="123.77" width="4.95" height="4.95"/><rect class="cls-1" x="242.57" y="108.92" width="4.95" height="4.95"/><rect class="cls-1" x="237.62" y="341.59" width="4.95" height="4.95"/><rect class="cls-1" x="237.62" y="326.74" width="4.95" height="4.95"/><rect class="cls-1" x="237.62" y="311.89" width="4.95" height="4.95"/><rect class="cls-1" x="237.62" y="128.72" width="4.95" height="4.95"/><rect class="cls-1" x="237.62" y="99.01" width="4.95" height="4.96"/><rect class="cls-1" x="232.67" y="133.67" width="4.95" height="4.95"/><rect class="cls-1" x="232.67" y="89.11" width="4.95" height="4.95"/><rect class="cls-1" x="227.72" y="94.06" width="4.95" height="4.95"/><rect class="cls-1" x="222.77" y="128.72" width="4.95" height="4.95"/><rect class="cls-1" x="222.77" y="84.16" width="4.95" height="4.95"/><rect class="cls-1" x="212.87" y="123.77" width="4.95" height="4.95"/><rect class="cls-1" x="212.87" y="79.21" width="4.95" height="4.95"/><rect class="cls-1" x="207.92" y="128.72" width="4.95" height="4.95"/><polygon class="cls-1" points="202.97 371.29 202.97 366.34 202.97 361.39 202.97 356.44 202.97 351.49 202.97 346.54 202.97 341.59 202.97 336.64 202.97 331.69 202.97 326.74 202.97 321.79 202.97 316.84 202.97 311.89 207.92 311.89 212.87 311.89 217.82 311.89 217.82 306.94 222.77 306.94 222.77 301.99 217.82 301.99 212.87 301.99 212.87 306.94 207.92 306.94 202.97 306.94 198.02 306.94 198.02 311.89 198.02 316.84 198.02 321.79 198.02 326.74 198.02 331.69 198.02 336.64 198.02 341.59 198.02 346.54 198.02 351.49 198.02 356.44 198.02 361.39 198.02 366.34 198.02 371.29 198.02 376.24 202.97 376.24 202.97 371.29"/><rect class="cls-1" x="198.02" y="123.77" width="4.95" height="4.95"/><rect class="cls-1" x="193.07" y="128.72" width="4.95" height="4.95"/><rect class="cls-1" x="188.12" y="59.41" width="4.95" height="4.95"/><rect class="cls-1" x="183.17" y="123.77" width="4.95" height="4.95"/><rect class="cls-1" x="178.22" y="128.72" width="4.95" height="4.95"/><rect class="cls-1" x="178.22" y="54.46" width="4.95" height="4.95"/><rect class="cls-1" x="173.27" y="133.67" width="4.95" height="4.95"/><rect class="cls-1" x="173.27" y="118.82" width="4.95" height="4.95"/><rect class="cls-1" x="173.27" y="103.97" width="4.95" height="4.95"/><rect class="cls-1" x="173.27" y="89.11" width="4.95" height="4.95"/><rect class="cls-1" x="173.27" y="74.26" width="4.95" height="4.95"/><rect class="cls-1" x="173.27" y="59.41" width="4.95" height="4.95"/><rect class="cls-1" x="173.27" y="44.56" width="4.95" height="4.95"/><rect class="cls-1" x="123.76" y="128.72" width="4.95" height="4.95"/><rect class="cls-1" x="123.76" y="113.87" width="4.95" height="4.95"/><rect class="cls-1" x="123.76" y="99.01" width="4.95" height="4.96"/><rect class="cls-1" x="123.76" y="54.46" width="4.95" height="4.95"/><rect class="cls-1" x="118.81" y="123.77" width="4.95" height="4.95"/><rect class="cls-1" x="118.81" y="49.51" width="4.95" height="4.95"/><rect class="cls-1" x="108.91" y="128.72" width="4.95" height="4.95"/><rect class="cls-1" x="108.91" y="54.46" width="4.95" height="4.95"/><rect class="cls-1" x="103.96" y="123.77" width="4.95" height="4.95"/><rect class="cls-1" x="94.06" y="128.72" width="4.95" height="4.95"/><rect class="cls-1" x="94.06" y="69.31" width="4.95" height="4.95"/><rect class="cls-1" x="84.16" y="74.26" width="4.95" height="4.95"/><rect class="cls-1" x="79.21" y="128.72" width="4.95" height="4.95"/><rect class="cls-1" x="69.31" y="133.67" width="4.95" height="4.95"/><rect class="cls-1" x="69.31" y="89.11" width="4.95" height="4.95"/><rect class="cls-1" x="64.36" y="99.01" width="4.95" height="4.96"/><rect class="cls-1" x="59.41" y="138.62" width="4.95" height="4.95"/><rect class="cls-1" x="59.41" y="94.06" width="4.95" height="4.95"/><rect class="cls-1" x="54.46" y="341.59" width="4.95" height="4.95"/><rect class="cls-1" x="54.46" y="326.74" width="4.95" height="4.95"/><rect class="cls-1" x="54.46" y="311.89" width="4.95" height="4.95"/><rect class="cls-1" x="54.46" y="103.97" width="4.95" height="4.95"/><rect class="cls-1" x="49.5" y="351.49" width="4.96" height="4.95"/><rect class="cls-1" x="49.5" y="336.64" width="4.96" height="4.95"/><rect class="cls-1" x="49.5" y="321.79" width="4.96" height="4.95"/><rect class="cls-1" x="49.5" y="306.94" width="4.96" height="4.95"/><rect class="cls-1" x="49.5" y="128.72" width="4.96" height="4.95"/><rect class="cls-1" x="49.5" y="113.87" width="4.96" height="4.95"/><rect class="cls-1" x="44.55" y="361.39" width="4.95" height="4.95"/><rect class="cls-1" x="44.55" y="346.54" width="4.95" height="4.95"/><rect class="cls-1" x="44.55" y="331.69" width="4.95" height="4.95"/><rect class="cls-1" x="44.55" y="316.84" width="4.95" height="4.95"/><rect class="cls-1" x="44.55" y="301.99" width="4.95" height="4.95"/><rect class="cls-1" x="44.55" y="138.62" width="4.95" height="4.95"/><rect class="cls-1" x="44.55" y="123.77" width="4.95" height="4.95"/><rect class="cls-1" x="39.6" y="356.44" width="4.95" height="4.95"/><rect class="cls-1" x="39.6" y="341.59" width="4.95" height="4.95"/><rect class="cls-1" x="39.6" y="326.74" width="4.95" height="4.95"/><rect class="cls-1" x="39.6" y="311.89" width="4.95" height="4.95"/><rect class="cls-1" x="39.6" y="297.03" width="4.95" height="4.96"/><rect class="cls-1" x="39.6" y="148.52" width="4.95" height="4.95"/><rect class="cls-1" x="34.65" y="351.49" width="4.95" height="4.95"/></g></svg>